<svg id="_5464306_Posts" data-name="5464306_Posts" xmlns="http://www.w3.org/2000/svg" width="326.15" height="219.363" viewBox="0 0 326.15 219.363">
  <g id="Background_2" transform="translate(6.777 15.837)">
    <g id="Group_8474" data-name="Group 8474" transform="translate(191.763 0)">
      <path id="Path_2519" data-name="Path 2519" d="M438.91,96.7h39.175s.005-8.969-4.625-8.969a7.121,7.121,0,0,0-7.182,5.56s0-16.739-8.422-14.283c-7.97,2.324-8.87,13.039-8.87,13.039s-1.434-5.388-5.754-2.352S438.91,96.7,438.91,96.7Z" transform="translate(-438.91 -78.76)" fill="#ebebeb"/>
    </g>
    <g id="Group_8475" data-name="Group 8475" transform="translate(60.935 38.185)">
      <path id="Path_2520" data-name="Path 2520" d="M203.152,158.5h23.873s0-5.465-2.818-5.465a4.339,4.339,0,0,0-4.377,3.388s0-10.2-5.132-8.7c-4.857,1.416-5.406,7.946-5.406,7.946s-.874-3.283-3.507-1.433A5.661,5.661,0,0,0,203.152,158.5Z" transform="translate(-203.152 -147.572)" fill="#e0e0e0"/>
    </g>
    <g id="Group_8477" data-name="Group 8477" transform="translate(0 134.229)">
      <g id="Group_8476" data-name="Group 8476" transform="translate(0 0)">
        <path id="Path_2521" data-name="Path 2521" d="M283.317,376.618l-8.707,35.428H279.2l8.085-35.428Z" transform="translate(-174.021 -345.559)" fill="#e0e0e0"/>
        <path id="Path_2522" data-name="Path 2522" d="M319.2,376.618l7.484,35.428h4.735l-8.4-35.428Z" transform="translate(-193.868 -345.559)" fill="#e0e0e0"/>
        <path id="Path_2523" data-name="Path 2523" d="M279.606,324.953l5.006,26.281H290.3l-5.347-26.281Z" transform="translate(-176.245 -322.564)" fill="#e0e0e0"/>
        <path id="Path_2524" data-name="Path 2524" d="M115.505,376.618,106.8,412.046h4.593l8.085-35.428Z" transform="translate(-99.332 -345.559)" fill="#e0e0e0"/>
        <path id="Path_2525" data-name="Path 2525" d="M151.39,376.618l7.485,35.428h4.735l-8.4-35.428Z" transform="translate(-119.178 -345.559)" fill="#e0e0e0"/>
        <path id="Path_2526" data-name="Path 2526" d="M111.8,324.953l5.006,26.281h5.689l-5.347-26.281Z" transform="translate(-101.556 -322.564)" fill="#e0e0e0"/>
        <rect id="Rectangle_768" data-name="Rectangle 768" width="114.225" height="4.778" fill="#f0f0f0"/>
        <rect id="Rectangle_769" data-name="Rectangle 769" width="114.225" height="4.778" transform="translate(1.593 9.784)" fill="#f0f0f0"/>
        <rect id="Rectangle_770" data-name="Rectangle 770" width="114.225" height="4.778" transform="translate(3.413 18.886)" fill="#f0f0f0"/>
        <rect id="Rectangle_771" data-name="Rectangle 771" width="121.961" height="4.778" transform="translate(10.612 28.67)" fill="#f0f0f0"/>
      </g>
    </g>
  </g>
  <g id="Floor" transform="translate(0 216.871)">
    <g id="Group_8486" data-name="Group 8486" transform="translate(0)">
      <path id="Path_2533" data-name="Path 2533" d="M407.28,441.183c0,.083-73.017.149-163.067.149-90.081,0-163.083-.067-163.083-.149s73-.15,163.083-.15C334.263,441.034,407.28,441.1,407.28,441.183Z" transform="translate(-81.13 -441.033)" fill="#263238"/>
    </g>
  </g>
  <g id="Device" transform="translate(128.895 0)">
    <g id="Group_8519" data-name="Group 8519">
      <g id="Group_8494" data-name="Group 8494">
        <g id="Group_8493" data-name="Group 8493">
          <g id="Group_8491" data-name="Group 8491">
            <path id="Path_2540" data-name="Path 2540" d="M380.849,213.579l-55.426-.256A12.074,12.074,0,0,1,313.4,201.2l.588-138.955a12.074,12.074,0,0,1,12.13-12.023l55.426.256A12.074,12.074,0,0,1,393.566,62.6l-.588,138.956A12.073,12.073,0,0,1,380.849,213.579Z" transform="translate(-313.405 -50.22)" fill="#263238"/>
          </g>
          <g id="Group_8492" data-name="Group 8492" transform="translate(3.39 4.869)">
            <path id="Path_2541" data-name="Path 2541" d="M383.9,59.25,373.152,59.2a2.67,2.67,0,0,0-2.621,2.716l-.009,1.949a2.669,2.669,0,0,1-2.621,2.716l-20.947-.1a2.672,2.672,0,0,1-2.6-2.74l.008-1.949a2.672,2.672,0,0,0-2.6-2.74l-3.78-.018-9.405-.043a8.456,8.456,0,0,0-8.495,8.42l-.573,135.63a8.456,8.456,0,0,0,8.416,8.492l55.316.255a8.456,8.456,0,0,0,8.495-8.42l.573-135.63A8.455,8.455,0,0,0,383.9,59.25Z" transform="translate(-319.514 -58.995)" fill="#fff"/>
          </g>
        </g>
      </g>
      <g id="Group_8495" data-name="Group 8495" transform="translate(33.821 21.717)">
        <rect id="Rectangle_772" data-name="Rectangle 772" width="14.271" height="2.619" transform="translate(0.012 0) rotate(0.264)" fill="#455a64"/>
      </g>
      <g id="Group_8500" data-name="Group 8500" transform="translate(7.716 30.129)">
        <g id="Group_8497" data-name="Group 8497" transform="translate(5.122 3.802)">
          <path id="Path_2542" data-name="Path 2542" d="M343.027,117.8a2.152,2.152,0,0,0,1.282-1.99,2.022,2.022,0,1,0-4.036-.019,2.149,2.149,0,0,0,1.286,2.009,3.231,3.231,0,0,0-2.734,2.348,4.575,4.575,0,0,0,2.8,1.509l1.244.006a4.578,4.578,0,0,0,2.843-1.521A3.176,3.176,0,0,0,343.027,117.8Z" transform="translate(-337.557 -112.379)" fill="#455a64"/>
          <g id="Group_8496" data-name="Group 8496">
            <path id="Path_2543" data-name="Path 2543" d="M341.25,120.689c0-.034.409-.013,1.107-.2a4.578,4.578,0,0,0,2.46-1.677,4.476,4.476,0,0,0,.618-4.234,4.473,4.473,0,0,0-1.557-2.064,4.436,4.436,0,0,0-5.258,0,4.472,4.472,0,0,0-1.557,2.064,4.474,4.474,0,0,0,.619,4.233,4.577,4.577,0,0,0,2.46,1.676c.7.186,1.11.165,1.108.2a1.135,1.135,0,0,1-.294.014,3.655,3.655,0,0,1-.84-.1,4.569,4.569,0,0,1-2.6-1.662,4.635,4.635,0,0,1-.9-1.97,4.709,4.709,0,0,1,.19-2.478,4.712,4.712,0,0,1,1.64-2.2,4.7,4.7,0,0,1,5.594,0,4.716,4.716,0,0,1,1.639,2.2,4.714,4.714,0,0,1,.19,2.478,4.636,4.636,0,0,1-.9,1.97,4.572,4.572,0,0,1-2.6,1.662,3.655,3.655,0,0,1-.84.1A1.1,1.1,0,0,1,341.25,120.689Z" transform="translate(-336.54 -111.365)" fill="#455a64"/>
          </g>
        </g>
        <g id="Group_8499" data-name="Group 8499">
          <g id="Group_8498" data-name="Group 8498">
            <path id="Path_2544" data-name="Path 2544" d="M390.837,121.779c0-.012.143,0,.412-.055a2.176,2.176,0,0,0,1.058-.557,2.2,2.2,0,0,0,.669-1.776c0-.789-.008-1.7-.013-2.717-.007-2.048-.015-4.549-.024-7.451q0-1.09-.006-2.253a2.113,2.113,0,0,0-1.038-1.932,4.967,4.967,0,0,0-2.439-.284l-2.676,0-57.138.042a2.047,2.047,0,0,0-1.665.861,2,2,0,0,0-.353.892c-.039.31-.016.675-.022,1.014q0,2.066,0,4.1,0,4.072,0,8.019a2.026,2.026,0,0,0,.843,1.561,1.966,1.966,0,0,0,.832.353,6.3,6.3,0,0,0,.944.034l3.835,0,7.425.005,25.688.031,17.318.046,4.709.027,1.225.014c.275,0,.416.013.416.013s-.141.01-.417.015l-1.225.014-4.708.027-17.318.046-25.688.031-7.425.005-3.835,0a6.392,6.392,0,0,1-.993-.038,2.246,2.246,0,0,1-.947-.4,2.307,2.307,0,0,1-.961-1.776q0-3.949-.007-8.031,0-2.038,0-4.1a10.146,10.146,0,0,1,.025-1.054,2.288,2.288,0,0,1,.4-1.019,2.337,2.337,0,0,1,1.9-.983l57.138.042,2.676,0,1.287,0a2.286,2.286,0,0,1,2.363,2.407q0,1.164-.005,2.253c-.009,2.9-.018,5.4-.024,7.451-.005,1.021-.009,1.929-.013,2.717a2.265,2.265,0,0,1-.715,1.819,2.153,2.153,0,0,1-1.093.544A1.586,1.586,0,0,1,390.837,121.779Z" transform="translate(-327.309 -104.513)" fill="#e0e0e0"/>
          </g>
          <rect id="Rectangle_773" data-name="Rectangle 773" width="16.14" height="1.21" transform="translate(18.686 4.594)" fill="#455a64"/>
          <rect id="Rectangle_774" data-name="Rectangle 774" width="28.278" height="1.21" transform="translate(18.686 11.435)" fill="#455a64"/>
          <rect id="Rectangle_775" data-name="Rectangle 775" width="40.981" height="1.21" transform="translate(18.686 7.932)" fill="#455a64"/>
        </g>
      </g>
      <g id="Group_8505" data-name="Group 8505" transform="translate(7.716 73.528)">
        <g id="Group_8502" data-name="Group 8502" transform="translate(5.122 3.803)">
          <path id="Path_2545" data-name="Path 2545" d="M343.027,196.008a2.151,2.151,0,0,0,1.282-1.991,2.022,2.022,0,1,0-4.036-.018,2.149,2.149,0,0,0,1.286,2.009,3.231,3.231,0,0,0-2.734,2.348,4.578,4.578,0,0,0,2.8,1.509l1.244.006a4.575,4.575,0,0,0,2.843-1.521A3.175,3.175,0,0,0,343.027,196.008Z" transform="translate(-337.557 -190.591)" fill="#455a64"/>
          <g id="Group_8501" data-name="Group 8501">
            <path id="Path_2546" data-name="Path 2546" d="M341.25,198.9c0-.034.409-.013,1.107-.2a4.578,4.578,0,0,0,2.46-1.677,4.476,4.476,0,0,0,.618-4.234,4.473,4.473,0,0,0-1.557-2.064,4.436,4.436,0,0,0-5.258,0,4.473,4.473,0,0,0-1.557,2.064,4.474,4.474,0,0,0,.619,4.234,4.574,4.574,0,0,0,2.46,1.676c.7.186,1.11.165,1.108.2a1.135,1.135,0,0,1-.294.014,3.656,3.656,0,0,1-.84-.1,4.57,4.57,0,0,1-2.6-1.661,4.635,4.635,0,0,1-.9-1.97,4.708,4.708,0,0,1,.19-2.478,4.712,4.712,0,0,1,1.64-2.2,4.7,4.7,0,0,1,5.594,0,4.716,4.716,0,0,1,1.639,2.2,4.713,4.713,0,0,1,.19,2.478,4.636,4.636,0,0,1-.9,1.97,4.572,4.572,0,0,1-2.6,1.662,3.658,3.658,0,0,1-.84.1A1.1,1.1,0,0,1,341.25,198.9Z" transform="translate(-336.54 -189.576)" fill="#455a64"/>
          </g>
        </g>
        <g id="Group_8504" data-name="Group 8504">
          <g id="Group_8503" data-name="Group 8503">
            <path id="Path_2547" data-name="Path 2547" d="M390.837,199.989c0-.012.143,0,.412-.055a2.176,2.176,0,0,0,1.058-.557,2.2,2.2,0,0,0,.669-1.776c0-.789-.008-1.7-.013-2.717-.007-2.048-.015-4.549-.024-7.451q0-1.09-.006-2.253a2.114,2.114,0,0,0-1.038-1.932,4.967,4.967,0,0,0-2.439-.284l-2.676.005-57.138.042a2.047,2.047,0,0,0-1.665.861,2,2,0,0,0-.353.892c-.039.31-.016.675-.022,1.014q0,2.067,0,4.1,0,4.072,0,8.019a2.026,2.026,0,0,0,.843,1.561,1.966,1.966,0,0,0,.832.353,6.307,6.307,0,0,0,.944.034l3.835,0,7.425.005,25.688.031,17.318.046,4.709.027,1.225.014c.275,0,.416.014.416.014s-.141.01-.417.015l-1.225.014-4.708.027-17.318.046-25.688.031-7.425.005-3.835,0a6.39,6.39,0,0,1-.993-.038,2.246,2.246,0,0,1-.947-.4,2.308,2.308,0,0,1-.961-1.777q0-3.949-.007-8.031,0-2.038,0-4.1a10.152,10.152,0,0,1,.025-1.054,2.288,2.288,0,0,1,.4-1.019,2.339,2.339,0,0,1,1.9-.983l57.138.042,2.676,0,1.287,0a2.286,2.286,0,0,1,2.363,2.407q0,1.164-.005,2.253c-.009,2.9-.018,5.4-.024,7.451-.005,1.021-.009,1.929-.013,2.717a2.265,2.265,0,0,1-.715,1.819,2.157,2.157,0,0,1-1.093.544A1.575,1.575,0,0,1,390.837,199.989Z" transform="translate(-327.309 -182.722)" fill="#e0e0e0"/>
          </g>
          <rect id="Rectangle_776" data-name="Rectangle 776" width="16.14" height="1.21" transform="translate(18.361 4.595)" fill="#455a64"/>
          <rect id="Rectangle_777" data-name="Rectangle 777" width="28.278" height="1.21" transform="translate(18.686 11.436)" fill="#455a64"/>
          <rect id="Rectangle_778" data-name="Rectangle 778" width="40.981" height="1.21" transform="translate(18.686 7.932)" fill="#455a64"/>
        </g>
      </g>
      <g id="Group_8510" data-name="Group 8510" transform="translate(7.716 95.229)">
        <g id="Group_8507" data-name="Group 8507" transform="translate(5.122 3.803)">
          <path id="Path_2548" data-name="Path 2548" d="M343.027,235.112a2.151,2.151,0,0,0,1.282-1.99,2.022,2.022,0,1,0-4.036-.019,2.149,2.149,0,0,0,1.286,2.009,3.231,3.231,0,0,0-2.734,2.348,4.578,4.578,0,0,0,2.8,1.509l1.244.006a4.575,4.575,0,0,0,2.843-1.521A3.175,3.175,0,0,0,343.027,235.112Z" transform="translate(-337.557 -229.696)" fill="#455a64"/>
          <g id="Group_8506" data-name="Group 8506">
            <path id="Path_2549" data-name="Path 2549" d="M341.25,238.006c0-.034.409-.013,1.107-.2a4.578,4.578,0,0,0,2.46-1.677,4.476,4.476,0,0,0,.618-4.233,4.473,4.473,0,0,0-1.557-2.064,4.436,4.436,0,0,0-5.258,0,4.472,4.472,0,0,0-1.557,2.064,4.474,4.474,0,0,0,.619,4.234,4.574,4.574,0,0,0,2.46,1.676c.7.185,1.11.165,1.108.2a1.137,1.137,0,0,1-.294.014,3.654,3.654,0,0,1-.84-.1,4.57,4.57,0,0,1-2.6-1.661,4.635,4.635,0,0,1-.9-1.97,4.708,4.708,0,0,1,.19-2.478,4.711,4.711,0,0,1,1.64-2.2,4.7,4.7,0,0,1,5.594,0,4.716,4.716,0,0,1,1.639,2.2,4.714,4.714,0,0,1,.19,2.478,4.636,4.636,0,0,1-.9,1.97,4.571,4.571,0,0,1-2.6,1.662,3.654,3.654,0,0,1-.84.1A1.18,1.18,0,0,1,341.25,238.006Z" transform="translate(-336.54 -228.682)" fill="#455a64"/>
          </g>
        </g>
        <g id="Group_8509" data-name="Group 8509">
          <g id="Group_8508" data-name="Group 8508">
            <path id="Path_2550" data-name="Path 2550" d="M390.837,239.094c0-.012.143,0,.412-.055a2.176,2.176,0,0,0,1.058-.557,2.2,2.2,0,0,0,.669-1.776c0-.789-.008-1.7-.013-2.717-.007-2.048-.015-4.549-.024-7.451q0-1.09-.006-2.253a2.112,2.112,0,0,0-1.038-1.931,4.967,4.967,0,0,0-2.439-.284l-2.676.005-57.138.042a2.047,2.047,0,0,0-1.665.861,2,2,0,0,0-.353.892c-.039.31-.016.675-.022,1.014q0,2.067,0,4.1,0,4.072,0,8.019a2.026,2.026,0,0,0,.843,1.561,1.975,1.975,0,0,0,.832.354,6.307,6.307,0,0,0,.944.034l3.835,0,7.425,0,25.688.031,17.318.046,4.709.027,1.225.014c.275,0,.416.013.416.013s-.141.01-.417.015l-1.225.014-4.708.027-17.318.046-25.688.031-7.425,0-3.835,0a6.386,6.386,0,0,1-.993-.038,2.246,2.246,0,0,1-.947-.4,2.307,2.307,0,0,1-.961-1.776q0-3.949-.007-8.031,0-2.038,0-4.1a10.149,10.149,0,0,1,.025-1.054,2.288,2.288,0,0,1,.4-1.019,2.338,2.338,0,0,1,1.9-.983l57.138.042,2.676.005,1.287,0a2.286,2.286,0,0,1,2.363,2.407q0,1.164-.005,2.253c-.009,2.9-.018,5.4-.024,7.451-.005,1.021-.009,1.929-.013,2.717a2.265,2.265,0,0,1-.715,1.819,2.152,2.152,0,0,1-1.093.544A1.587,1.587,0,0,1,390.837,239.094Z" transform="translate(-327.309 -221.828)" fill="#e0e0e0"/>
          </g>
          <rect id="Rectangle_779" data-name="Rectangle 779" width="16.14" height="1.21" transform="translate(18.686 4.594)" fill="#455a64"/>
          <rect id="Rectangle_780" data-name="Rectangle 780" width="28.278" height="1.21" transform="translate(18.686 11.435)" fill="#455a64"/>
          <rect id="Rectangle_781" data-name="Rectangle 781" width="40.981" height="1.21" transform="translate(18.686 7.932)" fill="#455a64"/>
        </g>
      </g>
      <g id="Group_8515" data-name="Group 8515" transform="translate(7.716 116.929)">
        <g id="Group_8512" data-name="Group 8512" transform="translate(5.122 3.803)">
          <path id="Path_2551" data-name="Path 2551" d="M343.027,274.217a2.152,2.152,0,0,0,1.282-1.991,2.022,2.022,0,1,0-4.036-.019,2.149,2.149,0,0,0,1.286,2.009,3.231,3.231,0,0,0-2.734,2.348,4.575,4.575,0,0,0,2.8,1.509l1.244.006a4.575,4.575,0,0,0,2.843-1.521A3.175,3.175,0,0,0,343.027,274.217Z" transform="translate(-337.557 -268.8)" fill="#455a64"/>
          <g id="Group_8511" data-name="Group 8511">
            <path id="Path_2552" data-name="Path 2552" d="M341.25,277.11c0-.034.409-.013,1.107-.2a4.578,4.578,0,0,0,2.46-1.677,4.476,4.476,0,0,0,.618-4.234,4.472,4.472,0,0,0-1.557-2.064,4.436,4.436,0,0,0-5.258,0A4.473,4.473,0,0,0,337.063,271a4.474,4.474,0,0,0,.619,4.234,4.577,4.577,0,0,0,2.46,1.676c.7.185,1.11.165,1.108.2a1.135,1.135,0,0,1-.294.014,3.657,3.657,0,0,1-.84-.1,4.569,4.569,0,0,1-2.6-1.662,4.635,4.635,0,0,1-.9-1.97,4.709,4.709,0,0,1,.19-2.478,4.717,4.717,0,0,1,1.64-2.2,4.7,4.7,0,0,1,5.594,0,4.716,4.716,0,0,1,1.639,2.2,4.714,4.714,0,0,1,.19,2.478,4.636,4.636,0,0,1-.9,1.97,4.572,4.572,0,0,1-2.6,1.662,3.657,3.657,0,0,1-.84.1A1.122,1.122,0,0,1,341.25,277.11Z" transform="translate(-336.54 -267.785)" fill="#455a64"/>
          </g>
        </g>
        <g id="Group_8514" data-name="Group 8514">
          <g id="Group_8513" data-name="Group 8513">
            <path id="Path_2553" data-name="Path 2553" d="M390.837,278.2c0-.012.143,0,.412-.055a2.176,2.176,0,0,0,1.058-.557,2.2,2.2,0,0,0,.669-1.776c0-.789-.008-1.7-.013-2.717-.007-2.048-.015-4.549-.024-7.451q0-1.09-.006-2.253a2.112,2.112,0,0,0-1.038-1.931,4.967,4.967,0,0,0-2.439-.284l-2.676.005-57.138.042a2.047,2.047,0,0,0-1.665.861,2,2,0,0,0-.353.892c-.039.31-.016.675-.022,1.014q0,2.066,0,4.1,0,4.072,0,8.019a2.026,2.026,0,0,0,.843,1.561,1.967,1.967,0,0,0,.832.353,6.315,6.315,0,0,0,.944.034l3.835,0,7.425.005,25.688.031,17.318.046,4.709.027,1.225.014c.275,0,.416.013.416.013s-.141.01-.417.015l-1.225.014-4.708.027-17.318.046-25.688.031-7.425.005-3.835,0a6.39,6.39,0,0,1-.993-.038,2.246,2.246,0,0,1-.947-.4,2.308,2.308,0,0,1-.961-1.777q0-3.949-.007-8.031,0-2.038,0-4.1a10.145,10.145,0,0,1,.025-1.054,2.288,2.288,0,0,1,.4-1.019,2.338,2.338,0,0,1,1.9-.983l57.138.042,2.676.005,1.287,0a2.286,2.286,0,0,1,2.363,2.407q0,1.164-.005,2.253c-.009,2.9-.018,5.4-.024,7.451-.005,1.021-.009,1.929-.013,2.717a2.265,2.265,0,0,1-.715,1.819,2.152,2.152,0,0,1-1.093.544A1.577,1.577,0,0,1,390.837,278.2Z" transform="translate(-327.309 -260.932)" fill="#e0e0e0"/>
          </g>
          <rect id="Rectangle_782" data-name="Rectangle 782" width="16.14" height="1.21" transform="translate(18.686 4.595)" fill="#455a64"/>
          <rect id="Rectangle_783" data-name="Rectangle 783" width="28.278" height="1.21" transform="translate(18.686 11.436)" fill="#455a64"/>
          <rect id="Rectangle_784" data-name="Rectangle 784" width="40.981" height="1.21" transform="translate(18.686 7.932)" fill="#455a64"/>
        </g>
      </g>
      <g id="Group_8516" data-name="Group 8516" transform="translate(34.472 143.623)">
        <path id="Path_2554" data-name="Path 2554" d="M377.808,310.259a1.144,1.144,0,1,1-1.136-1.222A1.181,1.181,0,0,1,377.808,310.259Z" transform="translate(-375.526 -309.037)" fill="#455a64"/>
      </g>
      <g id="Group_8517" data-name="Group 8517" transform="translate(38.009 143.64)">
        <path id="Path_2555" data-name="Path 2555" d="M384.181,310.288a1.144,1.144,0,1,1-1.136-1.222A1.181,1.181,0,0,1,384.181,310.288Z" transform="translate(-381.899 -309.066)" fill="#455a64"/>
      </g>
      <g id="Group_8518" data-name="Group 8518" transform="translate(41.545 143.656)">
        <path id="Path_2556" data-name="Path 2556" d="M390.554,310.318a1.144,1.144,0,1,1-1.136-1.223A1.18,1.18,0,0,1,390.554,310.318Z" transform="translate(-388.272 -309.095)" fill="#455a64"/>
      </g>
    </g>
  </g>
  <g id="Character" transform="translate(98.023 47.249)">
    <g id="Group_8631" data-name="Group 8631" transform="translate(0 0)">
      <g id="Group_8523" data-name="Group 8523" transform="translate(14.984)">
        <g id="Group_8522" data-name="Group 8522">
          <path id="Path_2557" data-name="Path 2557" d="M349.072,152.45l-61.041,4.4a2.182,2.182,0,0,1-2.333-2.019l-.918-12.727a2.182,2.182,0,0,1,2.019-2.333l61.041-4.4a2.182,2.182,0,0,1,2.333,2.019l.918,12.727A2.182,2.182,0,0,1,349.072,152.45Z" transform="translate(-284.775 -135.366)" fill="#a5a5a5"/>
          <rect id="Rectangle_785" data-name="Rectangle 785" width="16.14" height="1.21" transform="matrix(0.997, -0.072, 0.072, 0.997, 18.658, 7.672)" fill="#fafafa"/>
          <rect id="Rectangle_786" data-name="Rectangle 786" width="28.278" height="1.21" transform="matrix(0.997, -0.072, 0.072, 0.997, 19.15, 14.495)" fill="#fafafa"/>
          <rect id="Rectangle_787" data-name="Rectangle 787" width="40.981" height="1.21" transform="matrix(0.997, -0.072, 0.072, 0.997, 18.898, 11)" fill="#fafafa"/>
          <g id="Group_8521" data-name="Group 8521" transform="translate(5.4 7.507)">
            <path id="Path_2558" data-name="Path 2558" d="M301.229,155.267a2.152,2.152,0,0,0,1.136-2.078,2.022,2.022,0,1,0-4.027.272,2.148,2.148,0,0,0,1.427,1.912,3.23,3.23,0,0,0-2.558,2.538,4.576,4.576,0,0,0,2.9,1.3l1.241-.084a4.575,4.575,0,0,0,2.726-1.721A3.178,3.178,0,0,0,301.229,155.267Z" transform="translate(-295.709 -149.908)" fill="#fafafa"/>
            <g id="Group_8520" data-name="Group 8520">
              <path id="Path_2559" data-name="Path 2559" d="M299.549,158.2c0-.034.407-.043,1.09-.277a4.576,4.576,0,0,0,2.333-1.85,4.478,4.478,0,0,0,.312-4.267,4.471,4.471,0,0,0-1.7-1.947,4.436,4.436,0,0,0-5.245.378,4.474,4.474,0,0,0-1.4,2.171,4.474,4.474,0,0,0,.922,4.178,4.571,4.571,0,0,0,2.574,1.495c.71.134,1.119.084,1.119.118a1.132,1.132,0,0,1-.292.036,3.66,3.66,0,0,1-.845-.043,4.571,4.571,0,0,1-2.708-1.471,4.63,4.63,0,0,1-1.036-1.9,4.706,4.706,0,0,1,.012-2.486,4.719,4.719,0,0,1,1.477-2.314,4.694,4.694,0,0,1,5.579-.4,4.715,4.715,0,0,1,1.793,2.078,4.708,4.708,0,0,1,.368,2.458,4.636,4.636,0,0,1-.752,2.029,4.571,4.571,0,0,1-2.469,1.845,3.627,3.627,0,0,1-.83.163A1.1,1.1,0,0,1,299.549,158.2Z" transform="translate(-294.506 -148.893)" fill="#fafafa"/>
            </g>
          </g>
        </g>
      </g>
      <g id="Group_8630" data-name="Group 8630" transform="translate(0 5.052)">
        <path id="Path_2560" data-name="Path 2560" d="M262.964,433.14l-.813,4.71,7.256.528.026-4.627Z" transform="translate(-259.722 -272.951)" fill="#aca8a8"/>
        <g id="Group_8524" data-name="Group 8524" transform="translate(6.01 160.254)">
          <path id="Path_2561" data-name="Path 2561" d="M269.1,433.257a21.3,21.3,0,0,1-.476,4.276,21.311,21.311,0,0,1,.476-4.276Z" transform="translate(-268.602 -433.257)" fill="#263238"/>
        </g>
        <g id="Group_8525" data-name="Group 8525" transform="translate(2.568 163.976)">
          <path id="Path_2562" data-name="Path 2562" d="M269.521,440.906a5.6,5.6,0,0,1-1.051-.079l-2.522-.28c-.985-.113-1.877-.234-2.518-.343a4.7,4.7,0,0,1-1.029-.231,5.6,5.6,0,0,1,1.051.079l2.522.28c.985.113,1.876.234,2.518.343A4.624,4.624,0,0,1,269.521,440.906Z" transform="translate(-262.4 -439.963)" fill="#263238"/>
        </g>
        <g id="Group_8578" data-name="Group 8578" transform="translate(24.939 158.05)">
          <g id="Group_8530" data-name="Group 8530" transform="translate(0.068)">
            <g id="Group_8527" data-name="Group 8527">
              <g id="Group_8526" data-name="Group 8526">
                <path id="Path_2563" data-name="Path 2563" d="M311.031,435.186l.926-4.118-7.7-1.784-1.418,6.01.471.141c2.1.61,10.711,2.954,12.232,2.853C317.233,438.174,311.031,435.186,311.031,435.186Z" transform="translate(-302.836 -429.284)" fill="#aca8a8"/>
              </g>
            </g>
            <g id="Group_8529" data-name="Group 8529" transform="translate(0.033 3.75)">
              <g id="Group_8528" data-name="Group 8528">
                <path id="Path_2564" data-name="Path 2564" d="M305.669,438.888a2.742,2.742,0,0,0-.6-1.87,2.663,2.663,0,0,0-1.671-.977l-.5,2.152Z" transform="translate(-302.895 -436.042)" fill="#aca8a8"/>
              </g>
            </g>
          </g>
          <g id="Group_8532" data-name="Group 8532" transform="translate(0.067 5.841)">
            <g id="Group_8531" data-name="Group 8531">
              <path id="Path_2565" data-name="Path 2565" d="M314.034,441.445s2.14,1.193,1.767,1.5-9.167-1.73-12.966-2.97l.052-.169,10.236,2.469S313.582,441.36,314.034,441.445Z" transform="translate(-302.835 -439.81)" fill="#aca8a8"/>
            </g>
          </g>
          <g id="Group_8535" data-name="Group 8535" transform="translate(0 5.808)">
            <g id="Group_8534" data-name="Group 8534">
              <g id="Group_8533" data-name="Group 8533">
                <path id="Path_2566" data-name="Path 2566" d="M302.714,439.75a.679.679,0,0,0,.129.045l.375.111,1.386.385c1.173.317,2.8.734,4.6,1.154s3.448.765,4.64,1l1.413.267.386.066a.749.749,0,0,0,.135.017.708.708,0,0,0-.132-.036l-.382-.083-1.407-.3c-1.188-.251-2.827-.606-4.631-1.026s-3.431-.826-4.607-1.126l-1.393-.356-.38-.094A.769.769,0,0,0,302.714,439.75Z" transform="translate(-302.714 -439.75)" fill="#aca8a8"/>
              </g>
            </g>
          </g>
          <g id="Group_8538" data-name="Group 8538" transform="translate(10.321 7.391)">
            <g id="Group_8537" data-name="Group 8537">
              <g id="Group_8536" data-name="Group 8536">
                <path id="Path_2567" data-name="Path 2567" d="M321.318,443.641a3.23,3.23,0,0,1,.417-.608,3.264,3.264,0,0,1,.6-.425,1.278,1.278,0,0,0-1.018,1.033Z" transform="translate(-321.313 -442.604)" fill="#aca8a8"/>
              </g>
            </g>
          </g>
          <g id="Group_8541" data-name="Group 8541" transform="translate(8.319 6.2)">
            <g id="Group_8540" data-name="Group 8540">
              <g id="Group_8539" data-name="Group 8539">
                <path id="Path_2568" data-name="Path 2568" d="M317.707,441c.019.019.158-.088.311-.239s.263-.289.244-.307-.158.088-.311.239S317.689,440.986,317.707,441Z" transform="translate(-317.705 -440.456)" fill="#aca8a8"/>
              </g>
            </g>
          </g>
          <g id="Group_8544" data-name="Group 8544" transform="translate(7.774 5.948)">
            <g id="Group_8543" data-name="Group 8543">
              <g id="Group_8542" data-name="Group 8542">
                <path id="Path_2569" data-name="Path 2569" d="M316.723,440.329c.013.023.153-.03.314-.118s.28-.179.267-.2-.153.029-.314.118S316.711,440.305,316.723,440.329Z" transform="translate(-316.722 -440.003)" fill="#aca8a8"/>
              </g>
            </g>
          </g>
          <g id="Group_8547" data-name="Group 8547" transform="translate(7.548 5.445)">
            <g id="Group_8546" data-name="Group 8546">
              <g id="Group_8545" data-name="Group 8545">
                <path id="Path_2570" data-name="Path 2570" d="M316.317,439.107a1.8,1.8,0,1,0,.413.051A.933.933,0,0,0,316.317,439.107Z" transform="translate(-316.317 -439.096)" fill="#aca8a8"/>
              </g>
            </g>
          </g>
          <g id="Group_8550" data-name="Group 8550" transform="translate(7.532 4.908)">
            <g id="Group_8549" data-name="Group 8549">
              <g id="Group_8548" data-name="Group 8548">
                <path id="Path_2571" data-name="Path 2571" d="M316.287,438.132a1.162,1.162,0,0,0,.9.281,2.544,2.544,0,0,0-.449-.137A2.49,2.49,0,0,0,316.287,438.132Z" transform="translate(-316.287 -438.128)" fill="#aca8a8"/>
              </g>
            </g>
          </g>
          <g id="Group_8553" data-name="Group 8553" transform="translate(8.738 5.649)">
            <g id="Group_8552" data-name="Group 8552">
              <g id="Group_8551" data-name="Group 8551">
                <path id="Path_2572" data-name="Path 2572" d="M318.461,439.953a1.464,1.464,0,0,0,.5.112,2.971,2.971,0,0,0,.554.006,1.5,1.5,0,0,0,.33-.054.273.273,0,0,0,.158-.125.2.2,0,0,0-.029-.215.932.932,0,0,0-1.184.005.909.909,0,0,0-.238.292c-.039.08-.049.129-.044.131a1.445,1.445,0,0,1,.324-.37.915.915,0,0,1,.487-.177.79.79,0,0,1,.58.177c.065.077.013.162-.087.194a1.523,1.523,0,0,1-.306.054,3.53,3.53,0,0,1-.54.014C318.654,439.98,318.464,439.937,318.461,439.953Z" transform="translate(-318.461 -439.465)" fill="#aca8a8"/>
              </g>
            </g>
          </g>
          <g id="Group_8556" data-name="Group 8556" transform="translate(8.385 5.119)">
            <g id="Group_8555" data-name="Group 8555">
              <g id="Group_8554" data-name="Group 8554">
                <path id="Path_2573" data-name="Path 2573" d="M318.3,439.581a.5.5,0,0,0,.137-.33.834.834,0,0,0-.051-.393.511.511,0,0,0-.353-.348.2.2,0,0,0-.205.193.558.558,0,0,0,.033.241,1.545,1.545,0,0,0,.164.354.731.731,0,0,0,.236.266c.012-.01-.078-.112-.178-.3a1.729,1.729,0,0,1-.138-.345c-.044-.12-.047-.319.083-.313s.225.169.277.286a.84.84,0,0,1,.065.354A1.812,1.812,0,0,1,318.3,439.581Z" transform="translate(-317.825 -438.509)" fill="#aca8a8"/>
              </g>
            </g>
          </g>
          <g id="Group_8559" data-name="Group 8559" transform="translate(0.646 3.732)">
            <g id="Group_8558" data-name="Group 8558">
              <g id="Group_8557" data-name="Group 8557">
                <path id="Path_2574" data-name="Path 2574" d="M303.879,436.015c0,.018.225.03.564.152a2.476,2.476,0,0,1,1.644,2.076c.041.357,0,.582.019.584a.452.452,0,0,0,.036-.155,2.14,2.14,0,0,0,.013-.435,2.4,2.4,0,0,0-1.69-2.134,2.1,2.1,0,0,0-.426-.088A.477.477,0,0,0,303.879,436.015Z" transform="translate(-303.879 -436.009)" fill="#aca8a8"/>
              </g>
            </g>
          </g>
          <g id="Group_8562" data-name="Group 8562" transform="translate(1.411 0.718)">
            <g id="Group_8561" data-name="Group 8561">
              <g id="Group_8560" data-name="Group 8560">
                <path id="Path_2575" data-name="Path 2575" d="M306.034,430.578a13.812,13.812,0,0,0-.434,1.567,13.659,13.659,0,0,0-.341,1.589,27.531,27.531,0,0,0,.775-3.156Z" transform="translate(-305.257 -430.578)" fill="#aca8a8"/>
              </g>
            </g>
          </g>
          <g id="Group_8565" data-name="Group 8565" transform="translate(4.018 6.068)">
            <g id="Group_8564" data-name="Group 8564">
              <g id="Group_8563" data-name="Group 8563">
                <path id="Path_2576" data-name="Path 2576" d="M309.954,440.222a4.473,4.473,0,0,0,1.1.372,4.522,4.522,0,0,0,1.148.171c0-.028-.506-.114-1.125-.264S309.963,440.195,309.954,440.222Z" transform="translate(-309.954 -440.219)" fill="#aca8a8"/>
              </g>
            </g>
          </g>
          <g id="Group_8568" data-name="Group 8568" transform="translate(2.502 5.716)">
            <g id="Group_8567" data-name="Group 8567">
              <g id="Group_8566" data-name="Group 8566">
                <path id="Path_2577" data-name="Path 2577" d="M307.229,439.587c-.023.014.017.116.041.244s.029.236.056.241.068-.113.038-.259S307.25,439.572,307.229,439.587Z" transform="translate(-307.222 -439.585)" fill="#aca8a8"/>
              </g>
            </g>
          </g>
          <g id="Group_8571" data-name="Group 8571" transform="translate(2.097 4.876)">
            <g id="Group_8570" data-name="Group 8570">
              <g id="Group_8569" data-name="Group 8569">
                <path id="Path_2578" data-name="Path 2578" d="M306.5,438.073c-.023.014.008.105.069.2s.129.169.151.155-.008-.105-.069-.2S306.523,438.059,306.5,438.073Z" transform="translate(-306.493 -438.071)" fill="#aca8a8"/>
              </g>
            </g>
          </g>
          <g id="Group_8574" data-name="Group 8574" transform="translate(1.366 4.343)">
            <g id="Group_8573" data-name="Group 8573">
              <g id="Group_8572" data-name="Group 8572">
                <path id="Path_2579" data-name="Path 2579" d="M305.175,437.133c0,.027.1.05.206.117s.171.145.2.133-.016-.134-.145-.214S305.173,437.107,305.175,437.133Z" transform="translate(-305.175 -437.11)" fill="#aca8a8"/>
              </g>
            </g>
          </g>
          <g id="Group_8577" data-name="Group 8577" transform="translate(0.818 4.068)">
            <g id="Group_8576" data-name="Group 8576">
              <g id="Group_8575" data-name="Group 8575">
                <path id="Path_2580" data-name="Path 2580" d="M304.191,436.626c-.015.022.02.072.078.112s.118.054.132.032-.02-.072-.078-.112S304.206,436.6,304.191,436.626Z" transform="translate(-304.188 -436.615)" fill="#aca8a8"/>
              </g>
            </g>
          </g>
        </g>
        <path id="Path_2581" data-name="Path 2581" d="M363.818,157.5c-.577-.837-4.182,1.4-4.5,1.564s-.571-.289-.275-.424c.426-.194,4.847-2.343,4.288-3.171-.31-.459-1.083.174-1.083.174s-3.989,2.315-4.24,1.916,2.042-1.844,2.85-2.274.921-.978.439-1.175c-.328-.135-2.836,1.125-3.626,1.569s-2.933,1.7-2.381.221a4.059,4.059,0,0,0,.132-3.164.494.494,0,0,0-.83.429,5.753,5.753,0,0,1-.264,1.57,2.864,2.864,0,0,1-.539,1.158c-.155.176-.3.34-.429.495l-.011-.019-.418.529c-.519.629-.781.986-.781.986h0L331.278,184.3l1.122,10.972,24.211-32.886-.015-.027a44.419,44.419,0,0,0,4.555-1.406c2.172-.9,2.094-1.1,1.946-1.332-.4-.631-3.879,1.441-3.389.562S364.261,158.143,363.818,157.5Z" transform="translate(-290.488 -148.083)" fill="#e5baab"/>
        <path id="Path_2582" data-name="Path 2582" d="M278.1,172.809l2.911-17.037c.329-.418.809-1.043,1.356-1.8a3.9,3.9,0,0,1,.948-.926,5.943,5.943,0,0,1,1.447-.8.513.513,0,0,0,.134-.961,4.212,4.212,0,0,0-3.053,1.217c-1.259,1.05-.765-1.482-.6-2.408s.534-3.815.289-4.09c-.359-.4-.858-.094-1,.835s-.762,3.683-1.247,3.573.418-4.81.418-4.81.354-.974-.2-1.12c-1-.262-1.587,4.806-1.63,5.29-.031.337-.562.236-.509-.123s1-4.669-.016-4.947c-.781-.213-.519,4.165-1.211,4.947s.139-3.34-.616-3.513c-.281-.064-.5-.073-.635,2.363a48.887,48.887,0,0,0,.215,5.262c-.115.632-3.472,18.995-3.7,21.736-.23,2.789,9.22,18.956,9.22,18.956l6.5-6.652Z" transform="translate(-263.833 -144.47)" fill="#e5baab"/>
        <path id="Path_2583" data-name="Path 2583" d="M275.9,210.584c-.223.5,3.9,6.254,5.978,10.617l1.863,12.147c-2.11,3.863-4.536,8.382-5.708,13.36,8.354,3.9,17.857,3.428,26.994,1.642l-1.938-13.388,3.19-13.338,7.884-9.508-5.729-7.625-6.273,6.692-2.958.735a19.7,19.7,0,0,1-10.219-.906h0l-4.253-5.48Z" transform="translate(-265.837 -171.185)" fill="#988f8f"/>
        <g id="Group_8579" data-name="Group 8579" transform="translate(21.052 61.4)">
          <path id="Path_2584" data-name="Path 2584" d="M304.968,255.122a4.555,4.555,0,0,1-1.273.574,11.846,11.846,0,0,1-6.674.244,4.555,4.555,0,0,1-1.311-.479,15.295,15.295,0,0,0,9.258-.339Z" transform="translate(-295.71 -255.116)" fill="#263238"/>
        </g>
        <g id="Group_8580" data-name="Group 8580" transform="translate(35.466 44.55)">
          <path id="Path_2585" data-name="Path 2585" d="M328.778,228.355c.009.014-.092.106-.3.237a3.9,3.9,0,0,1-.953.418,4.538,4.538,0,0,1-5.611-2.86,3.9,3.9,0,0,1-.221-1.017.867.867,0,0,1,.016-.382,13.606,13.606,0,0,0,.4,1.325,4.57,4.57,0,0,0,5.369,2.736A13.417,13.417,0,0,0,328.778,228.355Z" transform="translate(-321.685 -224.751)" fill="#263238"/>
        </g>
        <g id="Group_8581" data-name="Group 8581" transform="translate(42.011 33.762)">
          <path id="Path_2586" data-name="Path 2586" d="M338.719,213.676a8.193,8.193,0,0,1-.754-1.238c-.442-.776-1.061-1.841-1.782-2.995s-1.412-2.175-1.916-2.912a8.268,8.268,0,0,1-.784-1.219,6.451,6.451,0,0,1,.949,1.1c.549.709,1.269,1.719,2,2.879s1.32,2.249,1.717,3.052A6.465,6.465,0,0,1,338.719,213.676Z" transform="translate(-333.48 -205.31)" fill="#263238"/>
        </g>
        <g id="Group_8582" data-name="Group 8582" transform="translate(10.771 35.269)">
          <path id="Path_2587" data-name="Path 2587" d="M286.147,208.03a8.489,8.489,0,0,1-1.3.769l-3.181,1.762-3.151,1.816a8.521,8.521,0,0,1-1.33.717,7.282,7.282,0,0,1,1.222-.891c.779-.514,1.876-1.193,3.116-1.893s2.388-1.29,3.23-1.692A7.289,7.289,0,0,1,286.147,208.03Z" transform="translate(-277.183 -208.026)" fill="#263238"/>
        </g>
        <g id="Group_8583" data-name="Group 8583" transform="translate(16.589 45.921)">
          <path id="Path_2588" data-name="Path 2588" d="M288.577,227.225a27,27,0,0,1-.872,2.766,4.334,4.334,0,0,1,.872-2.766Z" transform="translate(-287.667 -227.223)" fill="#263238"/>
        </g>
        <g id="Group_8587" data-name="Group 8587" transform="translate(21.808 21.745)">
          <g id="Group_8584" data-name="Group 8584">
            <path id="Path_2589" data-name="Path 2589" d="M307.17,202.652c-.1-1.236-.153-2.64-.153-2.64a3.709,3.709,0,0,0,2.766-3.893c-.226-3.161-1.356-10.37-1.356-10.37l-5.9-2.093-5.455,5.6,2.973,15.562,5.644-.376A1.628,1.628,0,0,0,307.17,202.652Z" transform="translate(-297.073 -183.656)" fill="#e5baab"/>
          </g>
          <g id="Group_8586" data-name="Group 8586" transform="translate(7.874 8.929)">
            <g id="Group_8585" data-name="Group 8585">
              <path id="Path_2590" data-name="Path 2590" d="M312.666,201.431c.009,0,.017.058-.031.142a.434.434,0,0,1-.329.2c-.355.029-.745-.316-.932-.775a1.51,1.51,0,0,1-.106-.7.6.6,0,0,1,.269-.516.3.3,0,0,1,.235-.025.268.268,0,0,1,.14.11c.053.088.029.149.021.145s-.016-.051-.07-.1a.2.2,0,0,0-.269-.021.5.5,0,0,0-.175.423,1.472,1.472,0,0,0,.107.618c.165.412.507.721.774.719a.4.4,0,0,0,.285-.12C312.639,201.475,312.654,201.427,312.666,201.431Z" transform="translate(-311.263 -199.747)" fill="#d78776"/>
            </g>
          </g>
        </g>
        <g id="Group_8590" data-name="Group 8590" transform="translate(16.856 17.982)">
          <path id="Path_2591" data-name="Path 2591" d="M303.651,180.317l.118.166a5.3,5.3,0,0,0-3.748-.942,10.962,10.962,0,0,0-4,.966q-.506.23-1.008.474a3.836,3.836,0,0,0,.419-.923,2.61,2.61,0,0,0-.8-2.825,2.214,2.214,0,0,0-2.892.431,2.5,2.5,0,0,0-.015,2.989,2.8,2.8,0,0,0,1.981,1.06,7.216,7.216,0,0,0-.645.472,6.2,6.2,0,0,0-2.084,6.067A11.259,11.259,0,0,0,291.6,190a5.563,5.563,0,0,1-.062,1.49,3.886,3.886,0,0,1-2.07,2.854,2.638,2.638,0,0,0-1.126.65,1.347,1.347,0,0,0,0,1.393,3.137,3.137,0,0,0,2.035,1.475,2.815,2.815,0,0,0,.4.073,3.825,3.825,0,0,0,.245,1.977,5.335,5.335,0,0,0,5.317,2.443l.082-1.471.547,1.642s1.9.716,6.06-1.194c1.39-.638-.648-5.7-.648-5.7a3.32,3.32,0,0,1-.706-2.732c-.878.115-1.73-2.178-1.552-2.942a1.776,1.776,0,0,1,1.631-1.453c.35.016.262,1.8,1.173,1.6.775-.021.483-1.438.724-2.158.527-1.569,1.6-3.766,1.214-5.377C306.1,181.154,304.887,179.4,303.651,180.317Z" transform="translate(-288.149 -176.875)" fill="#263238"/>
          <g id="Group_8588" data-name="Group 8588" transform="translate(1.087 4.129)">
            <path id="Path_2592" data-name="Path 2592" d="M290.276,188.694a1.5,1.5,0,0,1-.141-1.084,2.542,2.542,0,0,1,.471-1.115,2.366,2.366,0,0,1,1.2-.88,6.422,6.422,0,0,1,1.446-.17,2.069,2.069,0,0,0,1.048-.31,1.268,1.268,0,0,0,.554-.819c.014,0,.057.1.024.3a1.161,1.161,0,0,1-.459.685,2.147,2.147,0,0,1-1.143.409,7.387,7.387,0,0,0-1.385.18,2.445,2.445,0,0,0-1.559,1.759A4.9,4.9,0,0,0,290.276,188.694Z" transform="translate(-290.107 -184.315)" fill="#263238"/>
          </g>
          <g id="Group_8589" data-name="Group 8589" transform="translate(13.476 16.124)">
            <path id="Path_2593" data-name="Path 2593" d="M313.465,214.091a8.457,8.457,0,0,0,.646-1.115,3.656,3.656,0,0,0-.073-2.959,15.014,15.014,0,0,0-.926-1.452,4.16,4.16,0,0,1-.612-1.319,1.537,1.537,0,0,1,.134-1.314,2.827,2.827,0,0,0,.063,1.261,4.372,4.372,0,0,0,.635,1.224,12.317,12.317,0,0,1,.964,1.472,3.539,3.539,0,0,1,.358,1.756,3.732,3.732,0,0,1-.357,1.415,3.071,3.071,0,0,1-.553.808C313.584,214.033,313.477,214.1,313.465,214.091Z" transform="translate(-312.433 -205.931)" fill="#263238"/>
          </g>
        </g>
        <path id="Path_2594" data-name="Path 2594" d="M270.873,279.982l-11.724,85.059,11.63.353s11.886-74.87,12.671-74.431,8.727,32.307,8.378,34.259c-.2,1.12-9.172,39.33-8.532,39.182s11.244.921,11.244.921,9.138-40.194,9.006-41.166c-.321-2.366-6.327-45.212-6.327-45.212Z" transform="translate(-258.385 -204.323)" fill="#263238"/>
        <g id="Group_8591" data-name="Group 8591" transform="translate(19.973 84.527)">
          <path id="Path_2595" data-name="Path 2595" d="M303.249,299.933a6.493,6.493,0,0,1-1.453-.228,34.572,34.572,0,0,1-6.727-2.225,6.487,6.487,0,0,1-1.3-.683,8.619,8.619,0,0,1,1.382.494c.842.327,2.01.766,3.318,1.2s2.507.775,3.378,1.015A8.676,8.676,0,0,1,303.249,299.933Z" transform="translate(-293.766 -296.793)" fill="#455a64"/>
        </g>
        <g id="Group_8608" data-name="Group 8608" transform="translate(32.354 81.166)">
          <g id="Group_8592" data-name="Group 8592" transform="translate(0 79.487)">
            <path id="Path_2596" data-name="Path 2596" d="M316.428,433.977c.078.017.076.334-.006.709s-.21.664-.289.647-.075-.334.006-.709S316.35,433.96,316.428,433.977Z" transform="translate(-316.076 -433.977)" fill="#455a64"/>
          </g>
          <g id="Group_8593" data-name="Group 8593" transform="translate(0.9 74.135)">
            <path id="Path_2597" data-name="Path 2597" d="M318.312,424.333a6.559,6.559,0,0,1-.581,2.676,6.554,6.554,0,0,1,.581-2.676Z" transform="translate(-317.699 -424.332)" fill="#455a64"/>
          </g>
          <g id="Group_8594" data-name="Group 8594" transform="translate(2.062 68.783)">
            <path id="Path_2598" data-name="Path 2598" d="M320.406,414.688a6.558,6.558,0,0,1-.581,2.676,6.554,6.554,0,0,1,.581-2.676Z" transform="translate(-319.792 -414.687)" fill="#455a64"/>
          </g>
          <g id="Group_8595" data-name="Group 8595" transform="translate(3.224 63.431)">
            <path id="Path_2599" data-name="Path 2599" d="M322.5,405.043a6.559,6.559,0,0,1-.581,2.676,6.553,6.553,0,0,1,.581-2.676Z" transform="translate(-321.886 -405.042)" fill="#455a64"/>
          </g>
          <g id="Group_8596" data-name="Group 8596" transform="translate(4.386 58.079)">
            <path id="Path_2600" data-name="Path 2600" d="M324.594,395.4a6.559,6.559,0,0,1-.581,2.676,6.553,6.553,0,0,1,.581-2.676Z" transform="translate(-323.98 -395.397)" fill="#455a64"/>
          </g>
          <g id="Group_8597" data-name="Group 8597" transform="translate(5.548 52.726)">
            <path id="Path_2601" data-name="Path 2601" d="M326.688,385.753a6.558,6.558,0,0,1-.581,2.676,6.553,6.553,0,0,1,.581-2.676Z" transform="translate(-326.074 -385.752)" fill="#455a64"/>
          </g>
          <g id="Group_8598" data-name="Group 8598" transform="translate(6.71 47.374)">
            <path id="Path_2602" data-name="Path 2602" d="M328.782,376.108a6.559,6.559,0,0,1-.581,2.676,6.554,6.554,0,0,1,.581-2.676Z" transform="translate(-328.168 -376.107)" fill="#455a64"/>
          </g>
          <g id="Group_8599" data-name="Group 8599" transform="translate(7.872 42.022)">
            <path id="Path_2603" data-name="Path 2603" d="M330.876,366.463a6.559,6.559,0,0,1-.581,2.676,6.559,6.559,0,0,1,.581-2.676Z" transform="translate(-330.262 -366.462)" fill="#455a64"/>
          </g>
          <g id="Group_8600" data-name="Group 8600" transform="translate(8.76 36.638)">
            <path id="Path_2604" data-name="Path 2604" d="M331.911,356.76a3.377,3.377,0,0,1,.331,1.336,9,9,0,0,1,.092,1.031v.028l0,.005c-.069.2-.128.315-.163.307s-.041-.137-.021-.347v.033a8.951,8.951,0,0,1-.191-1.017A3.354,3.354,0,0,1,331.911,356.76Z" transform="translate(-331.863 -356.76)" fill="#455a64"/>
          </g>
          <g id="Group_8601" data-name="Group 8601" transform="translate(8.009 31.213)">
            <path id="Path_2605" data-name="Path 2605" d="M330.558,346.984a6.558,6.558,0,0,1,.375,2.713,6.558,6.558,0,0,1-.375-2.713Z" transform="translate(-330.509 -346.984)" fill="#455a64"/>
          </g>
          <g id="Group_8602" data-name="Group 8602" transform="translate(7.259 25.787)">
            <path id="Path_2606" data-name="Path 2606" d="M329.205,337.207a6.555,6.555,0,0,1,.375,2.712,6.561,6.561,0,0,1-.375-2.712Z" transform="translate(-329.157 -337.207)" fill="#455a64"/>
          </g>
          <g id="Group_8603" data-name="Group 8603" transform="translate(6.508 20.362)">
            <path id="Path_2607" data-name="Path 2607" d="M327.852,327.431a6.556,6.556,0,0,1,.375,2.712,6.555,6.555,0,0,1-.375-2.712Z" transform="translate(-327.804 -327.431)" fill="#455a64"/>
          </g>
          <g id="Group_8604" data-name="Group 8604" transform="translate(5.757 14.937)">
            <path id="Path_2608" data-name="Path 2608" d="M326.5,317.654a6.555,6.555,0,0,1,.375,2.712,6.56,6.56,0,0,1-.375-2.712Z" transform="translate(-326.451 -317.654)" fill="#455a64"/>
          </g>
          <g id="Group_8605" data-name="Group 8605" transform="translate(5.006 9.512)">
            <path id="Path_2609" data-name="Path 2609" d="M325.146,307.878a6.556,6.556,0,0,1,.375,2.712,6.559,6.559,0,0,1-.375-2.712Z" transform="translate(-325.098 -307.878)" fill="#455a64"/>
          </g>
          <g id="Group_8606" data-name="Group 8606" transform="translate(4.256 4.087)">
            <path id="Path_2610" data-name="Path 2610" d="M323.793,298.1a6.555,6.555,0,0,1,.375,2.712,6.561,6.561,0,0,1-.375-2.712Z" transform="translate(-323.745 -298.102)" fill="#455a64"/>
          </g>
          <g id="Group_8607" data-name="Group 8607" transform="translate(3.662)">
            <path id="Path_2611" data-name="Path 2611" d="M322.751,290.737c.079-.011.186.288.238.668s.031.7-.048.707-.186-.288-.238-.668S322.673,290.748,322.751,290.737Z" transform="translate(-322.675 -290.736)" fill="#455a64"/>
          </g>
        </g>
        <path id="Path_2612" data-name="Path 2612" d="M300.546,433.015l12.943.756.682-3.7-12.9-.517Z" transform="translate(-276.81 -271.353)" fill="#455a64"/>
        <path id="Path_2613" data-name="Path 2613" d="M257.773,431.3l12.943.756.681-3.7-12.9-.517Z" transform="translate(-257.773 -270.59)" fill="#455a64"/>
        <g id="Group_8624" data-name="Group 8624" transform="translate(10.354 85.721)">
          <g id="Group_8609" data-name="Group 8609" transform="translate(12.253)">
            <path id="Path_2614" data-name="Path 2614" d="M298.571,300.3c-.078-.016-.079-.334,0-.709s.2-.666.282-.65.079.334,0,.709S298.649,300.321,298.571,300.3Z" transform="translate(-298.512 -298.945)" fill="#455a64"/>
          </g>
          <g id="Group_8610" data-name="Group 8610" transform="translate(11.187 4.029)">
            <path id="Path_2615" data-name="Path 2615" d="M296.625,308.875a6.5,6.5,0,0,1,.543-2.67,6.5,6.5,0,0,1-.543,2.67Z" transform="translate(-296.59 -306.204)" fill="#455a64"/>
          </g>
          <g id="Group_8611" data-name="Group 8611" transform="translate(10.118 9.37)">
            <path id="Path_2616" data-name="Path 2616" d="M294.7,318.5a6.491,6.491,0,0,1,.531-2.672,6.49,6.49,0,0,1-.531,2.672Z" transform="translate(-294.664 -315.83)" fill="#455a64"/>
          </g>
          <g id="Group_8612" data-name="Group 8612" transform="translate(9.073 14.716)">
            <path id="Path_2617" data-name="Path 2617" d="M292.818,328.14a6.486,6.486,0,0,1,.518-2.675,6.512,6.512,0,0,1-.518,2.675Z" transform="translate(-292.781 -325.465)" fill="#455a64"/>
          </g>
          <g id="Group_8613" data-name="Group 8613" transform="translate(8.056 20.07)">
            <path id="Path_2618" data-name="Path 2618" d="M290.985,337.791a6.5,6.5,0,0,1,.5-2.678,6.495,6.495,0,0,1-.5,2.678Z" transform="translate(-290.948 -335.113)" fill="#455a64"/>
          </g>
          <g id="Group_8614" data-name="Group 8614" transform="translate(7.068 25.427)">
            <path id="Path_2619" data-name="Path 2619" d="M289.207,347.447a6.483,6.483,0,0,1,.489-2.68,6.509,6.509,0,0,1-.489,2.68Z" transform="translate(-289.169 -344.766)" fill="#455a64"/>
          </g>
          <g id="Group_8615" data-name="Group 8615" transform="translate(6.114 30.789)">
            <path id="Path_2620" data-name="Path 2620" d="M287.488,357.112a6.493,6.493,0,0,1,.472-2.684,6.493,6.493,0,0,1-.472,2.684Z" transform="translate(-287.448 -354.429)" fill="#455a64"/>
          </g>
          <g id="Group_8616" data-name="Group 8616" transform="translate(5.194 36.158)">
            <path id="Path_2621" data-name="Path 2621" d="M285.831,366.789a6.485,6.485,0,0,1,.455-2.686,6.491,6.491,0,0,1-.455,2.686Z" transform="translate(-285.79 -364.103)" fill="#455a64"/>
          </g>
          <g id="Group_8617" data-name="Group 8617" transform="translate(4.311 41.531)">
            <path id="Path_2622" data-name="Path 2622" d="M284.242,376.476a6.494,6.494,0,0,1,.436-2.69,6.5,6.5,0,0,1-.436,2.69Z" transform="translate(-284.199 -373.786)" fill="#455a64"/>
          </g>
          <g id="Group_8618" data-name="Group 8618" transform="translate(3.467 46.911)">
            <path id="Path_2623" data-name="Path 2623" d="M282.722,386.174a6.5,6.5,0,0,1,.416-2.692,6.5,6.5,0,0,1-.416,2.692Z" transform="translate(-282.678 -383.482)" fill="#455a64"/>
          </g>
          <g id="Group_8619" data-name="Group 8619" transform="translate(2.663 52.298)">
            <path id="Path_2624" data-name="Path 2624" d="M281.277,395.884a6.5,6.5,0,0,1,.4-2.7,6.494,6.494,0,0,1-.4,2.7Z" transform="translate(-281.231 -393.189)" fill="#455a64"/>
          </g>
          <g id="Group_8620" data-name="Group 8620" transform="translate(1.902 57.691)">
            <path id="Path_2625" data-name="Path 2625" d="M279.906,405.605a6.494,6.494,0,0,1,.374-2.7,6.491,6.491,0,0,1-.374,2.7Z" transform="translate(-279.858 -402.907)" fill="#455a64"/>
          </g>
          <g id="Group_8621" data-name="Group 8621" transform="translate(1.183 63.089)">
            <path id="Path_2626" data-name="Path 2626" d="M278.614,415.337a6.487,6.487,0,0,1,.352-2.7,6.512,6.512,0,0,1-.352,2.7Z" transform="translate(-278.563 -412.635)" fill="#455a64"/>
          </g>
          <g id="Group_8622" data-name="Group 8622" transform="translate(0.508 68.495)">
            <path id="Path_2627" data-name="Path 2627" d="M277.4,425.081a6.5,6.5,0,0,1,.33-2.7,6.49,6.49,0,0,1-.33,2.7Z" transform="translate(-277.347 -422.376)" fill="#455a64"/>
          </g>
          <g id="Group_8623" data-name="Group 8623" transform="translate(0 73.908)">
            <path id="Path_2628" data-name="Path 2628" d="M276.516,433.509c-.079-.009-.108-.325-.064-.706s.143-.682.223-.673.108.325.064.706S276.6,433.518,276.516,433.509Z" transform="translate(-276.431 -432.131)" fill="#455a64"/>
          </g>
        </g>
        <g id="Group_8625" data-name="Group 8625" transform="translate(34.376 120.204)">
          <path id="Path_2629" data-name="Path 2629" d="M326.456,361.613a142.266,142.266,0,0,1-6.735-.432,22.984,22.984,0,0,1,6.735.432Z" transform="translate(-319.721 -361.085)" fill="#455a64"/>
        </g>
        <g id="Group_8626" data-name="Group 8626" transform="translate(34.799 119.292)">
          <path id="Path_2630" data-name="Path 2630" d="M326.159,359.472a16.158,16.158,0,0,1-5.677.211,108.589,108.589,0,0,1,5.677-.211Z" transform="translate(-320.482 -359.44)" fill="#455a64"/>
        </g>
        <g id="Group_8627" data-name="Group 8627" transform="translate(8.411 118.854)">
          <path id="Path_2631" data-name="Path 2631" d="M275.633,363.173a24.029,24.029,0,0,1-2.7-4.522,24.08,24.08,0,0,1,2.7,4.522Z" transform="translate(-272.931 -358.651)" fill="#455a64"/>
        </g>
        <g id="Group_8628" data-name="Group 8628" transform="translate(32.333 77.83)">
          <path id="Path_2632" data-name="Path 2632" d="M322.894,284.724a.98.98,0,0,1-.019.388,6.551,6.551,0,0,1-.226,1.035,3.319,3.319,0,0,1-.784,1.39,2.438,2.438,0,0,1-1.836.68,5.329,5.329,0,0,1-1.892-.451,4.755,4.755,0,0,1-1.355-.824,1.892,1.892,0,0,1-.739-1.239,3.676,3.676,0,0,0,.872,1.084,5.033,5.033,0,0,0,1.322.733,5.43,5.43,0,0,0,1.8.408,2.222,2.222,0,0,0,1.644-.583,3.319,3.319,0,0,0,.776-1.265C322.749,285.26,322.845,284.712,322.894,284.724Z" transform="translate(-316.039 -284.724)" fill="#455a64"/>
        </g>
        <g id="Group_8629" data-name="Group 8629" transform="translate(21.301 78.395)">
          <path id="Path_2633" data-name="Path 2633" d="M297.8,293.07c-.017.013-.1-.066-.235-.2a4.842,4.842,0,0,1-.615-.584,3.807,3.807,0,0,1-.707-1.077,5.747,5.747,0,0,1-.068-1.564c.061-1.089.186-2.062.28-2.766a4.673,4.673,0,0,1,.215-1.133,34.089,34.089,0,0,1-.206,3.914,6.43,6.43,0,0,0,.035,1.477,4.239,4.239,0,0,0,.612,1.024c.188.292.417.456.538.635S297.819,293.058,297.8,293.07Z" transform="translate(-296.159 -285.742)" fill="#455a64"/>
        </g>
      </g>
    </g>
  </g>
</svg>
